<svg width="20" height="20" viewBox="0 0 20 20" fill="none" xmlns="http://www.w3.org/2000/svg">
    <path d="M18.2141 17.8572C18.6636 17.8572 19.0532 17.7087 19.3843 17.4156L13.718 11.7491C13.5821 11.8464 13.4503 11.9411 13.3258 12.0311C12.9018 12.3435 12.5576 12.5873 12.2933 12.762C12.0291 12.9371 11.6775 13.1156 11.2387 13.2978C10.7995 13.4802 10.3904 13.5711 10.0109 13.5711H9.99978H9.98867C9.60911 13.5711 9.19999 13.4803 8.76088 13.2978C8.32177 13.1156 7.9702 12.9371 7.70622 12.762C7.44198 12.5873 7.09801 12.3436 6.67375 12.0311C6.55552 11.9444 6.4244 11.8493 6.28264 11.7476L0.615234 17.4156C0.946356 17.7087 1.33616 17.8572 1.78569 17.8572H18.2141Z" fill="white"/>
    <path d="M1.12735 8.18087C0.703347 7.89819 0.327345 7.57444 0 7.20976V15.8309L4.99427 10.8367C3.99513 10.1391 2.7078 9.25488 1.12735 8.18087Z" fill="white"/>
    <path d="M18.8841 8.18087C17.3639 9.20978 16.0718 10.0956 15.0078 10.8387L20.0001 15.8312V7.20976C19.68 7.5671 19.3081 7.89063 18.8841 8.18087Z" fill="white"/>
    <path d="M18.2142 2.14283H1.78584C1.21271 2.14283 0.772074 2.33637 0.463393 2.72305C0.154458 3.1099 0.000244141 3.59371 0.000244141 4.17393C0.000244141 4.6426 0.204894 5.15041 0.614012 5.69751C1.02313 6.24439 1.45846 6.67395 1.9198 6.98641C2.1727 7.1651 2.93538 7.69531 4.20784 8.57688C4.89473 9.05288 5.49209 9.46777 6.00542 9.8258C6.44297 10.1307 6.82031 10.3947 7.13186 10.6138C7.16763 10.6389 7.22388 10.6791 7.29853 10.7325C7.37896 10.7903 7.48074 10.8636 7.6063 10.9542C7.8481 11.1291 8.04897 11.2705 8.20896 11.3785C8.36873 11.4865 8.5623 11.6071 8.78939 11.7411C9.0163 11.8749 9.23032 11.9756 9.43119 12.0425C9.6321 12.1094 9.81809 12.1429 9.98919 12.1429H10.0003H10.0114C10.1825 12.1429 10.3685 12.1094 10.5694 12.0425C10.7703 11.9756 10.9841 11.8752 11.2112 11.7411C11.4381 11.6071 11.6314 11.4862 11.7917 11.3785C11.9517 11.2705 12.1525 11.1291 12.3944 10.9542C12.5197 10.8636 12.6215 10.7902 12.7019 10.7327C12.7766 10.6791 12.8328 10.6391 12.8688 10.6138C13.1115 10.4449 13.4897 10.182 13.9982 9.82888C14.9235 9.18599 16.2862 8.23976 18.092 6.98641C18.6351 6.60707 19.0888 6.14929 19.4535 5.61374C19.8175 5.07819 20 4.51642 20 3.92861C20 3.4375 19.8231 3.01728 19.47 2.66727C19.1164 2.3177 18.6978 2.14283 18.2142 2.14283Z" fill="white"/>
</svg>
